HIERARCHY
ROOT Hips
{
    OFFSET   0.000000   0.000000   0.000000
    CHANNELS 6 Xposition Yposition Zposition Zrotation Xrotation Yrotation
    JOINT Chest
    {
        OFFSET   0.000000   8.007230   0.000000
        CHANNELS 3 Zrotation Xrotation Yrotation
        JOINT Chest2
        {
            OFFSET   0.000000  22.077100   0.000000
            CHANNELS 3 Zrotation Xrotation Yrotation
            JOINT Neck
            {
                OFFSET   0.000000  23.255100   0.000000
                CHANNELS 3 Zrotation Xrotation Yrotation
                JOINT Head
                {
                    OFFSET   0.000000  14.370100   1.956600
                    CHANNELS 3 Zrotation Xrotation Yrotation
                    End Site
                    {
                        OFFSET   0.000000  19.566000   0.000000
                    }
                }
            }
            JOINT LeftCollar
            {
                OFFSET   3.911900  19.017000  -0.467063
                CHANNELS 3 Zrotation Xrotation Yrotation
                JOINT LeftShoulder
                {
                    OFFSET  10.383700   0.000000   0.000000
                    CHANNELS 3 Zrotation Xrotation Yrotation
                    JOINT LeftElbow
                    {
                        OFFSET  26.662100   0.001193   0.000980
                        CHANNELS 3 Zrotation Xrotation Yrotation
                        JOINT LeftWrist
                        {
                            OFFSET  28.869000  -0.000059  -0.000082
                            CHANNELS 3 Zrotation Xrotation Yrotation
                            JOINT LeftFinger0
                            {
                                OFFSET   2.044650  -2.323450   3.252850
                                CHANNELS 3 Zrotation Xrotation Yrotation
                                JOINT LeftFinger01
                                {
                                    OFFSET   3.088130   0.000000   0.000000
                                    CHANNELS 3 Zrotation Xrotation Yrotation
                                    JOINT LeftFinger02
                                    {
                                        OFFSET   2.639460   0.000000   0.000000
                                        CHANNELS 3 Zrotation Xrotation Yrotation
                                        End Site
                                        {
                                            OFFSET   2.582190   0.000000   0.000000
                                        }
                                    }
                                }
                            }
                            JOINT LeftFinger1
                            {
                                OFFSET   8.364480   0.000000   3.252850
                                CHANNELS 3 Zrotation Xrotation Yrotation
                                JOINT LeftFinger11
                                {
                                    OFFSET   4.646930   0.000000   0.000000
                                    CHANNELS 3 Zrotation Xrotation Yrotation
                                    JOINT LeftFinger12
                                    {
                                        OFFSET   2.323470   0.000000   0.000000
                                        CHANNELS 3 Zrotation Xrotation Yrotation
                                        End Site
                                        {
                                            OFFSET   2.273050   0.000000   0.000000
                                        }
                                    }
                                }
                            }
                            JOINT LeftFinger2
                            {
                                OFFSET   8.364490   0.000016   1.078090
                                CHANNELS 3 Zrotation Xrotation Yrotation
                                JOINT LeftFinger21
                                {
                                    OFFSET   5.111610   0.000000   0.000000
                                    CHANNELS 3 Zrotation Xrotation Yrotation
                                    JOINT LeftFinger22
                                    {
                                        OFFSET   2.788150   0.000016   0.000000
                                        CHANNELS 3 Zrotation Xrotation Yrotation
                                        End Site
                                        {
                                            OFFSET   2.727660   0.000000   0.000000
                                        }
                                    }
                                }
                            }
                            JOINT LeftFinger3
                            {
                                OFFSET   7.899780   0.000015  -1.078090
                                CHANNELS 3 Zrotation Xrotation Yrotation
                                JOINT LeftFinger31
                                {
                                    OFFSET   4.646930   0.000000   0.000000
                                    CHANNELS 3 Zrotation Xrotation Yrotation
                                    JOINT LeftFinger32
                                    {
                                        OFFSET   2.323470   0.000000   0.000000
                                        CHANNELS 3 Zrotation Xrotation Yrotation
                                        End Site
                                        {
                                            OFFSET   2.273050   0.000000   0.000000
                                        }
                                    }
                                }
                            }
                            JOINT LeftFinger4
                            {
                                OFFSET   7.435090   0.000000  -3.252850
                                CHANNELS 3 Zrotation Xrotation Yrotation
                                JOINT LeftFinger41
                                {
                                    OFFSET   3.717550   0.000000   0.000000
                                    CHANNELS 3 Zrotation Xrotation Yrotation
                                    JOINT LeftFinger42
                                    {
                                        OFFSET   1.858770   0.000000   0.000000
                                        CHANNELS 3 Zrotation Xrotation Yrotation
                                        End Site
                                        {
                                            OFFSET   1.818440   0.000000   0.000000
                                        }
                                    }
                                }
                            }
                        }
                    }
                }
            }
            JOINT RightCollar
            {
                OFFSET  -3.911910  19.017000  -0.467062
                CHANNELS 3 Zrotation Xrotation Yrotation
                JOINT RightShoulder
                {
                    OFFSET -10.383700   0.000014   0.000000
                    CHANNELS 3 Zrotation Xrotation Yrotation
                    JOINT RightElbow
                    {
                        OFFSET -26.662100   0.001225   0.001091
                        CHANNELS 3 Zrotation Xrotation Yrotation
                        JOINT RightWrist
                        {
                            OFFSET -28.869000  -0.000020  -0.000085
                            CHANNELS 3 Zrotation Xrotation Yrotation
                            JOINT RightFinger0
                            {
                                OFFSET  -2.044650  -2.323490   3.252850
                                CHANNELS 3 Zrotation Xrotation Yrotation
                                JOINT RightFinger01
                                {
                                    OFFSET  -3.088130   0.000000   0.000000
                                    CHANNELS 3 Zrotation Xrotation Yrotation
                                    JOINT RightFinger02
                                    {
                                        OFFSET  -2.639460   0.000000   0.000000
                                        CHANNELS 3 Zrotation Xrotation Yrotation
                                        End Site
                                        {
                                            OFFSET  -2.582190   0.000000   0.000000
                                        }
                                    }
                                }
                            }
                            JOINT RightFinger1
                            {
                                OFFSET  -8.364480   0.000000   3.252850
                                CHANNELS 3 Zrotation Xrotation Yrotation
                                JOINT RightFinger11
                                {
                                    OFFSET  -4.646930   0.000000   0.000000
                                    CHANNELS 3 Zrotation Xrotation Yrotation
                                    JOINT RightFinger12
                                    {
                                        OFFSET  -2.323470   0.000000   0.000000
                                        CHANNELS 3 Zrotation Xrotation Yrotation
                                        End Site
                                        {
                                            OFFSET  -2.273050   0.000000   0.000000
                                        }
                                    }
                                }
                            }
                            JOINT RightFinger2
                            {
                                OFFSET  -8.364480   0.000000   1.078090
                                CHANNELS 3 Zrotation Xrotation Yrotation
                                JOINT RightFinger21
                                {
                                    OFFSET  -5.111620   0.000000   0.000000
                                    CHANNELS 3 Zrotation Xrotation Yrotation
                                    JOINT RightFinger22
                                    {
                                        OFFSET  -2.788160   0.000000   0.000000
                                        CHANNELS 3 Zrotation Xrotation Yrotation
                                        End Site
                                        {
                                            OFFSET  -2.727660   0.000000   0.000000
                                        }
                                    }
                                }
                            }
                            JOINT RightFinger3
                            {
                                OFFSET  -7.899780   0.000000  -1.078090
                                CHANNELS 3 Zrotation Xrotation Yrotation
                                JOINT RightFinger31
                                {
                                    OFFSET  -4.646930   0.000000   0.000000
                                    CHANNELS 3 Zrotation Xrotation Yrotation
                                    JOINT RightFinger32
                                    {
                                        OFFSET  -2.323470   0.000000   0.000000
                                        CHANNELS 3 Zrotation Xrotation Yrotation
                                        End Site
                                        {
                                            OFFSET  -2.273050   0.000000   0.000000
                                        }
                                    }
                                }
                            }
                            JOINT RightFinger4
                            {
                                OFFSET  -7.435090   0.000000  -3.252850
                                CHANNELS 3 Zrotation Xrotation Yrotation
                                JOINT RightFinger41
                                {
                                    OFFSET  -3.717550   0.000000   0.000000
                                    CHANNELS 3 Zrotation Xrotation Yrotation
                                    JOINT RightFinger42
                                    {
                                        OFFSET  -1.858760   0.000000   0.000000
                                        CHANNELS 3 Zrotation Xrotation Yrotation
                                        End Site
                                        {
                                            OFFSET  -1.818440   0.000000   0.000000
                                        }
                                    }
                                }
                            }
                        }
                    }
                }
            }
        }
    }
    JOINT LeftHip
    {
        OFFSET   9.783030   0.000000   0.000000
        CHANNELS 3 Zrotation Xrotation Yrotation
        JOINT LeftKnee
        {
            OFFSET   0.000063 -41.789100   0.000608
            CHANNELS 3 Zrotation Xrotation Yrotation
            JOINT LeftAnkle
            {
                OFFSET   0.000048 -41.133200  -0.000184
                CHANNELS 3 Zrotation Xrotation Yrotation
                JOINT LeftToe
                {
                    OFFSET   0.000000  -6.358960  14.674500
                    CHANNELS 3 Zrotation Xrotation Yrotation
                    End Site
                    {
                        OFFSET   0.000000   0.000000   3.913200
                    }
                }
            }
        }
    }
    JOINT RightHip
    {
        OFFSET  -9.783030   0.000000   0.000000
        CHANNELS 3 Zrotation Xrotation Yrotation
        JOINT RightKnee
        {
            OFFSET   0.000071 -41.789100   0.001239
            CHANNELS 3 Zrotation Xrotation Yrotation
            JOINT RightAnkle
            {
                OFFSET   0.000037 -41.133200  -0.000166
                CHANNELS 3 Zrotation Xrotation Yrotation
                JOINT RightToe
                {
                    OFFSET   0.000000  -6.358960  14.674500
                    CHANNELS 3 Zrotation Xrotation Yrotation
                    End Site
                    {
                        OFFSET   0.000000   0.000000   3.913200
                    }
                }
            }
        }
    }
}
MOTION
Frames: 4
Frame Time:   0.016667
  1.908050  89.426600   2.115440  -4.348280 -18.121700  -2.993380   0.410050  11.313300   2.324870   0.351314  22.633900   4.707600  -4.471850  -2.622290  -0.205030  -7.389260  -5.220670  16.818900  -7.664420  -4.510510   0.567143 -64.388400  33.142400 -11.457600  -1.382060 -10.571600 -18.027600  16.992000 -11.016400   7.358090  39.394400  33.829100 -58.524900 -33.403700  -0.000612   0.000000 -11.701800   0.000393  -0.003039 -33.587500   7.950460 -11.765400 -28.152000   0.008603  -0.000931 -19.706400   0.000509  -0.009835 -28.770800   1.293120  -2.353480 -42.499300   0.001575  -0.001791 -28.304600   0.003503  -0.004473 -28.722200   1.291000  -2.354650 -40.121100   0.000253  -0.001818 -26.720700   0.007335  -0.010631 -33.294400   0.617767  -0.940480 -49.949200   0.000312  -0.000172 -33.266100   0.000731  -0.009737  11.708500  -6.174970  15.985900  37.470400  41.389900  24.658600 -21.595700 -28.535700  97.072600  -6.192670 -38.162800 -15.950300 -52.627000  35.586900  48.679800  13.152500  -0.020873  -0.076851   1.576310  -0.008778  -0.038300   2.778070  -0.297578  -4.680920   2.469300  -0.000809  -0.003616   1.728600   0.002656  -0.006629   0.071232   0.069490 -11.746800   0.469770  -0.009905   0.061464   0.312958  -0.001106   0.035958 -11.340500   2.795370 -10.402800  -0.000062   0.052995   0.066748  -0.396366   0.042302   0.039450   7.455230  -1.250960 -10.861100  11.514800   0.140371   0.066847   7.670180   0.092417  -0.006836   1.763640  21.465400   4.404110   0.124729   0.240744   6.862330  -1.211270  -4.678100   0.701277  -0.000000   0.000000   0.000000   1.649490  20.288300  -2.130130  -0.875785   3.626770 -10.752300   2.030780  -5.643540   1.027720  -0.000000   0.000000   0.000000
  1.887280  89.446300   2.147710  -4.427180 -18.108800  -3.199570   0.408886  11.322000   2.456900   0.320245  22.650100   4.980440  -4.334040  -2.535860  -0.190914  -7.160000  -5.052550  16.317400  -7.690990  -4.575700   0.347666 -64.406600  33.265400 -11.608400  -1.440510 -10.649600 -17.624600  17.001700 -10.760700   7.365590  39.224600  33.526700 -58.271200 -33.395900  -0.000717  -0.000138 -11.697900   0.000380  -0.003033 -33.577800   7.956920 -11.784500 -28.143400   0.008612  -0.000929 -19.700400   0.000502  -0.009833 -28.773200   1.303820  -2.372970 -42.500000   0.001865  -0.001773 -28.305000   0.003469  -0.004484 -28.721400   1.301630  -2.374180 -40.126400   0.000218  -0.001802 -26.724200   0.007350  -0.010618 -33.308600   0.614805  -0.935477 -49.970400   0.000280  -0.000198 -33.280300   0.000700  -0.009773  11.795200  -6.304920  15.794800  37.026500  41.763100  24.393500 -22.776200 -27.479900  96.610200  -7.619400 -38.291200 -15.956200 -48.722200  29.757100  41.502400  13.033100  -0.011584  -0.041122   1.516600  -0.007810   0.116539   3.979580  -0.419707  -3.243660   3.232750  -0.176018  -0.289463   2.262820  -0.148040  -0.180295   0.959156  -0.255567  -7.378630   1.801960  -0.058859  -0.317979   1.204750  -0.072813  -0.203009  -7.592760   1.375410 -10.435900   0.000441  -0.039036  -0.417189  -0.677531  -0.062044  -0.275067   9.137210  -2.054920 -10.767000  13.783200  -0.614764  -0.282750   9.176940  -0.520790   0.041623   1.764000  21.507000   4.403380   0.127391   0.204718   6.967180  -1.189500  -4.705920   0.796245   0.000000   0.000000  -0.000000   1.664430  20.293100  -2.116400  -0.886578   3.599970 -10.679700   2.040400  -5.625270   1.129040   0.000000   0.000000   0.000000
  1.865670  89.461400   2.177700  -4.474970 -18.104500  -3.305570   0.404263  11.345100   2.604950   0.278196  22.696800   5.287160  -4.199160  -2.503100  -0.183782  -6.934810  -4.993630  15.780500  -7.718360  -4.687640   0.197717 -64.335000  33.429000 -11.840200  -1.489370 -10.770500 -17.396900  17.009500 -10.599100   7.375500  39.090300  33.238700 -58.068100 -33.359500  -0.000829  -0.000276 -11.679800   0.000364  -0.003026 -33.564400   7.983610 -11.823100 -28.138800   0.008621  -0.000927 -19.697200   0.000494  -0.009829 -28.772700   1.324490  -2.410770 -42.500800   0.002149  -0.001755 -28.305500   0.003437  -0.004495 -28.720000   1.322330  -2.411960 -40.131800   0.000184  -0.001787 -26.727800   0.007365  -0.010605 -33.322800   0.611842  -0.930475 -49.991600   0.000248  -0.000225 -33.294400   0.000670  -0.009809  11.967500  -6.525100  15.692300  37.434600  42.039800  23.339000 -24.455100 -26.517900  96.319300  -8.718080 -39.189700 -16.000900 -45.897400  22.866900  36.978800  12.197100   0.025200  -0.005393   1.098490  -0.001031   0.335141   6.379620  -0.484438  -2.363750   4.893720  -0.389463  -0.491251   3.425570  -0.322631  -0.300770   4.004330  -0.662419  -4.585030   4.252770  -0.282073  -0.678284   2.831970  -0.262316  -0.425708  -2.165340  -0.104232 -10.731000   0.000021  -0.367693  -0.901144  -0.850446  -0.315367  -0.589592  12.456500  -3.063600 -10.677000  18.558000  -1.561200  -0.532327  12.360900  -1.076570   0.160914   1.772960  21.570500   4.399560   0.126948   0.166115   7.028990  -1.179670  -4.728080   0.840179   0.000000   0.000000   0.000000   1.682550  20.308000  -2.111650  -0.893600   3.581120 -10.641300   2.046130  -5.619340   1.187900  -0.000000   0.000000   0.000000
  1.841210  89.466400   2.203940  -4.492470 -18.117100  -3.299020   0.393444  11.389200   2.734970   0.225846  22.785300   5.558650  -4.084440  -2.542660  -0.183840  -6.750210  -5.079380  15.343800  -7.732530  -4.793570   0.199505 -64.228500  33.582100 -12.027300  -1.522040 -10.927500 -17.420100  16.959200 -10.554700   7.366770  39.071300  33.097100 -57.965100 -33.247400  -0.000952  -0.000398 -11.623800   0.000335  -0.003019 -33.530400   8.041110 -11.922400 -28.118900   0.008630  -0.000920 -19.683200   0.000485  -0.009825 -28.771300   1.375080  -2.502600 -42.495500   0.002428  -0.001736 -28.302000   0.003403  -0.004505 -28.716100   1.372620  -2.503940 -40.113200   0.000149  -0.001771 -26.715300   0.007385  -0.010593 -33.317400   0.612890  -0.932300 -49.983600   0.000218  -0.000252 -33.289100   0.000643  -0.009848  12.138400  -6.740480  15.710500  39.431500  41.027200  21.007500 -24.775600 -25.938600  96.921300  -4.774100 -47.874500 -12.863500 -42.495100  14.238300  36.427200   9.757940   0.125889  -0.013657  -0.120748   0.031543   0.435357  11.314200  -0.438797  -2.162640   8.724300  -0.663905  -0.479204   6.107720  -0.504963  -0.252900  10.055400  -1.016320  -5.795650   7.410220  -0.965687  -0.595713   4.937360  -0.669298  -0.260418   5.571520  -1.247250 -11.853100   2.272540  -1.222280  -0.764848   1.038030  -0.806986  -0.350286  19.585300  -3.309420  -9.956410  29.259300  -1.856240  -0.368584  19.489700  -1.072790   0.395726   1.799300  21.622900   4.388130   0.116770   0.164376   7.027440  -1.183660  -4.771240   0.835844  -0.000000   0.000000  -0.000000   1.704460  20.336400  -2.140710  -0.891965   3.568880 -10.643700   2.047670  -5.622200   1.199420  -0.000000   0.000000   0.000000
